<svg width="239" height="60" viewBox="0 0 239 60" fill="none" xmlns="http://www.w3.org/2000/svg">
<path d="M5.175 59C3.775 59 2.7 58.425 1.95 57.275C1.25 56.075 1.175 54.775 1.725 53.375L22.05 3.05C22.8 1.3 24.025 0.424999 25.725 0.424999C27.525 0.424999 28.75 1.3 29.4 3.05L49.8 53.525C50.35 54.925 50.25 56.2 49.5 57.35C48.8 58.45 47.725 59 46.275 59C45.525 59 44.8 58.8 44.1 58.4C43.45 57.95 42.975 57.35 42.675 56.6L24.825 10.4H26.925L8.775 56.6C8.475 57.4 7.975 58 7.275 58.4C6.575 58.8 5.875 59 5.175 59ZM92.5963 59.075C91.4963 59.075 90.5713 58.725 89.8213 58.025C89.1213 57.275 88.7713 56.35 88.7713 55.25V36.8C88.7713 33.95 88.2463 31.625 87.1963 29.825C86.1463 28.025 84.7213 26.7 82.9213 25.85C81.1713 24.95 79.1463 24.5 76.8463 24.5C74.7463 24.5 72.8463 24.925 71.1463 25.775C69.4463 26.625 68.0963 27.775 67.0963 29.225C66.0963 30.625 65.5963 32.25 65.5963 34.1H60.8713C60.8713 30.95 61.6213 28.15 63.1213 25.7C64.6713 23.2 66.7713 21.225 69.4213 19.775C72.0713 18.325 75.0463 17.6 78.3463 17.6C81.7963 17.6 84.8713 18.35 87.5713 19.85C90.3213 21.3 92.4713 23.45 94.0213 26.3C95.6213 29.15 96.4213 32.65 96.4213 36.8V55.25C96.4213 56.35 96.0463 57.275 95.2963 58.025C94.5963 58.725 93.6963 59.075 92.5963 59.075ZM61.7713 59.075C60.6713 59.075 59.7463 58.725 58.9963 58.025C58.2963 57.275 57.9463 56.35 57.9463 55.25V21.8C57.9463 20.65 58.2963 19.725 58.9963 19.025C59.7463 18.325 60.6713 17.975 61.7713 17.975C62.9213 17.975 63.8463 18.325 64.5463 19.025C65.2463 19.725 65.5963 20.65 65.5963 21.8V55.25C65.5963 56.35 65.2463 57.275 64.5463 58.025C63.8463 58.725 62.9213 59.075 61.7713 59.075ZM113.644 59C112.544 59 111.619 58.65 110.869 57.95C110.169 57.2 109.819 56.275 109.819 55.175V21.8C109.819 20.65 110.169 19.725 110.869 19.025C111.619 18.325 112.544 17.975 113.644 17.975C114.794 17.975 115.719 18.325 116.419 19.025C117.119 19.725 117.469 20.65 117.469 21.8V55.175C117.469 56.275 117.119 57.2 116.419 57.95C115.719 58.65 114.794 59 113.644 59ZM113.644 11.3C112.294 11.3 111.119 10.825 110.119 9.875C109.169 8.875 108.694 7.7 108.694 6.35C108.694 5 109.169 3.85 110.119 2.9C111.119 1.9 112.294 1.4 113.644 1.4C114.994 1.4 116.144 1.9 117.094 2.9C118.094 3.85 118.594 5 118.594 6.35C118.594 7.7 118.094 8.875 117.094 9.875C116.144 10.825 114.994 11.3 113.644 11.3Z" fill="#6354CF"/>
<path d="M185.551 59.075C184.451 59.075 183.526 58.725 182.776 58.025C182.076 57.275 181.726 56.35 181.726 55.25V33.8C181.726 30.65 180.951 28.325 179.401 26.825C177.851 25.275 175.826 24.5 173.326 24.5C170.726 24.5 168.576 25.4 166.876 27.2C165.226 29 164.401 31.3 164.401 34.1H158.176C158.176 30.85 158.876 28 160.276 25.55C161.676 23.05 163.626 21.1 166.126 19.7C168.676 18.3 171.576 17.6 174.826 17.6C177.676 17.6 180.201 18.225 182.401 19.475C184.601 20.725 186.301 22.575 187.501 25.025C188.751 27.425 189.376 30.35 189.376 33.8V55.25C189.376 56.35 189.026 57.275 188.326 58.025C187.626 58.725 186.701 59.075 185.551 59.075ZM135.526 59.075C134.426 59.075 133.501 58.725 132.751 58.025C132.051 57.275 131.701 56.35 131.701 55.25V21.875C131.701 20.725 132.051 19.8 132.751 19.1C133.501 18.4 134.426 18.05 135.526 18.05C136.676 18.05 137.601 18.4 138.301 19.1C139.001 19.8 139.351 20.725 139.351 21.875V55.25C139.351 56.35 139.001 57.275 138.301 58.025C137.601 58.725 136.676 59.075 135.526 59.075ZM160.576 59.075C159.476 59.075 158.551 58.725 157.801 58.025C157.101 57.275 156.751 56.35 156.751 55.25V33.8C156.751 30.65 155.976 28.325 154.426 26.825C152.876 25.275 150.851 24.5 148.351 24.5C145.751 24.5 143.601 25.4 141.901 27.2C140.201 29 139.351 31.3 139.351 34.1H134.626C134.626 30.85 135.276 28 136.576 25.55C137.876 23.05 139.676 21.1 141.976 19.7C144.276 18.3 146.901 17.6 149.851 17.6C152.701 17.6 155.226 18.225 157.426 19.475C159.626 20.725 161.326 22.575 162.526 25.025C163.776 27.425 164.401 30.35 164.401 33.8V55.25C164.401 56.35 164.051 57.275 163.351 58.025C162.651 58.725 161.726 59.075 160.576 59.075ZM221.362 59.3C217.212 59.3 213.512 58.425 210.262 56.675C207.062 54.875 204.537 52.425 202.687 49.325C200.887 46.175 199.987 42.575 199.987 38.525C199.987 34.425 200.837 30.825 202.537 27.725C204.287 24.575 206.687 22.125 209.737 20.375C212.787 18.575 216.287 17.675 220.237 17.675C224.137 17.675 227.487 18.55 230.287 20.3C233.087 22 235.212 24.375 236.662 27.425C238.162 30.425 238.912 33.9 238.912 37.85C238.912 38.8 238.587 39.6 237.937 40.25C237.287 40.85 236.462 41.15 235.462 41.15H205.237V35.15H235.237L232.162 37.25C232.112 34.75 231.612 32.525 230.662 30.575C229.712 28.575 228.362 27 226.612 25.85C224.862 24.7 222.737 24.125 220.237 24.125C217.387 24.125 214.937 24.75 212.887 26C210.887 27.25 209.362 28.975 208.312 31.175C207.262 33.325 206.737 35.775 206.737 38.525C206.737 41.275 207.362 43.725 208.612 45.875C209.862 48.025 211.587 49.725 213.787 50.975C215.987 52.225 218.512 52.85 221.362 52.85C222.912 52.85 224.487 52.575 226.087 52.025C227.737 51.425 229.062 50.75 230.062 50C230.812 49.45 231.612 49.175 232.462 49.175C233.362 49.125 234.137 49.375 234.787 49.925C235.637 50.675 236.087 51.5 236.137 52.4C236.187 53.3 235.787 54.075 234.937 54.725C233.237 56.075 231.112 57.175 228.562 58.025C226.062 58.875 223.662 59.3 221.362 59.3Z" fill="white"/>
</svg>
